<?xml version="1.0" encoding="UTF-8"?>
<svg id="Ebene_1" xmlns="http://www.w3.org/2000/svg" version="1.1" viewBox="0 0 800 800">
  <!-- Generator: Adobe Illustrator 29.6.1, SVG Export Plug-In . SVG Version: 2.1.1 Build 9)  -->
  <defs>
    <style>
      .st0 {
        fill: #13120f;
      }

      .st1 {
        fill: #df8430;
      }

      .st2 {
        fill: none;
        stroke: #fff;
        stroke-linecap: round;
        stroke-linejoin: round;
        stroke-width: 12px;
      }
    </style>
  </defs>
  <g>
    <path class="st0" d="M399.9,753.3c-.9,0-1.8-.2-2.7-.7h-.1c-91.4-47.7-162.1-105.8-210.1-172.7-47.9-66.7-72.2-141.1-72.2-221.2v-197c0-3.3,2.7-5.9,5.9-5.9,54.7,0,106-9.2,152.4-27.3,46.4-18.2,87.6-45.1,122.6-79.9h0c1.1-1.2,2.5-1.8,4-1.8s3,.6,4,1.7h0c35,34.9,76.3,61.8,122.6,80,46.4,18.1,97.7,27.3,152.4,27.3s5.9,2.7,5.9,5.9v197c0,80.1-24.3,154.5-72.2,221.2-47.9,66.8-118.7,124.9-210.2,172.6h0c-.9.5-1.8.8-2.7.8ZM396.1,64.5c-34,32.1-73.8,57.3-118.5,74.8-44.5,17.4-93.4,26.9-145.5,28.2h-5.4v191.2c0,77.7,23.5,149.9,69.7,214.4,46.2,64.2,113.8,120.2,200.8,166.4l2.6,1.4,2.6-1.4c87.2-46.2,154.8-102.2,201-166.4,46.3-64.6,69.7-136.7,69.7-214.4v-191.1h-5.4c-52-1.4-101-10.9-145.5-28.3-44.6-17.5-84.5-42.7-118.7-74.8l-3.8-3.6-3.8,3.6Z"/>
    <path class="st0" d="M399.9,696c-1,0-2-.2-2.8-.7-75.4-42.6-133.6-93.1-172.9-150-39.2-56.6-59-119.4-59-186.6v-149.1c0-3,2.4-5.6,5.3-5.8,42.7-4.3,83.6-14,121.6-28.7,38.1-14.9,73.1-35,104.1-59.7,1.1-.8,2.4-1.3,3.8-1.3s2.3.2,3.6,1.2c31.6,25,66.7,45.1,104.2,59.8,37.9,14.8,78.5,24.5,120.6,28.6h.2s.2,0,.2,0c3.3,0,5.9,2.7,5.9,6v149.1c0,67.2-19.9,130-59,186.6-39.1,56.7-97.3,107.1-172.8,149.9-.9.5-2,.8-3.1.8ZM396.6,129.7c-30.7,23.3-64.4,42.2-100.2,56.2-35.5,13.9-74,23.5-114.6,28.4l-4.8.6v143.9c0,64.7,19.1,125.2,56.8,180,37.1,53.8,92.1,101.9,163.5,143.2l2.7,1.6,2.8-1.6c71.5-41.2,126.5-89.4,163.5-143.2,37.8-54.6,56.9-115.2,56.9-180v-143.9l-4.8-.6c-40.8-4.9-79.3-14.4-114.6-28.3-35.6-13.8-69.4-32.7-100.4-56.2l-3.3-2.5-3.3,2.5Z"/>
  </g>
  <g>
    <circle class="st1" cx="597.3" cy="554.2" r="121.1"/>
    <polyline class="st2" points="544.5 549.8 582.4 591.5 650.2 516.9"/>
  </g>
</svg>