<?xml version="1.0" encoding="UTF-8"?>
<svg id="Ebene_1" xmlns="http://www.w3.org/2000/svg" version="1.1" viewBox="0 0 800 800">
  <!-- Generator: Adobe Illustrator 29.6.1, SVG Export Plug-In . SVG Version: 2.1.1 Build 9)  -->
  <defs>
    <style>
      .st0 {
        fill: #fff;
      }

      .st1 {
        fill: #df8430;
      }

      .st2 {
        fill: none;
        stroke: #192430;
        stroke-linecap: round;
        stroke-linejoin: round;
        stroke-width: 12px;
      }
    </style>
  </defs>
  <path class="st2" d="M321.5,414l-74.2,21.1c-60.8,17.3-102.2,73.6-100.5,136.8l2.9,51.5"/>
  <path class="st2" d="M484.9,414l74.2,21.1c16.1,4.6,30.9,11.9,43.8,21.4"/>
  <path class="st2" d="M478.3,362.6v49.6c-15.4,22.1-43.3,36.9-75.1,36.9s-59.7-14.8-75.1-36.9h0v-49.6"/>
  <path class="st2" d="M509.9,240.8l-2.6,47.1c-2,37.4-22.2,72.6-55.5,89.6-14.5,7.4-30.9,11.5-48.2,11.5s-26.4-2.5-38.3-7.1c-37.5-14.5-61.8-51.3-65-91.4l-3.5-44.9c-.1-2-.2-4-.2-6"/>
  <path class="st2" d="M516.6,214.7l3-31.7c0-52.4-52.1-94.8-116.3-94.8s-116.3,42.4-116.3,94.8l2.6,28.2"/>
  <path class="st2" d="M477,233.3c-44.5-29.8-103.1-29.8-147.6,0-11.4,7.5-26.9,9-36.1.5h0c-9.2-8.5-5.3-27.4,10.9-38.2,59.7-40,138.3-40,198,0,16.2,10.8,20.1,29.7,10.9,38.2h0c-9.2,8.6-24.7,7-36.1-.5Z"/>
  <line class="st2" x1="282.7" y1="434.9" x2="292.3" y2="528.6"/>
  <line class="st2" x1="523.8" y1="432.7" x2="514.2" y2="526.4"/>
  <polyline class="st2" points="279.6 614 279.6 536.5 526.8 536.5 526.8 614"/>
  <path class="st2" d="M713.9,450.3l2.8-10.2c20.3-5.8,37.2-21.7,43.2-43.6s-1.4-47.5-18.2-62.9l-13,47.4c-1.9,6.8-8.8,10.7-15.6,8.9l-30.5-8.4c-6.8-1.9-10.7-8.8-8.9-15.6l13-47.4c-22.3,4.6-41.3,21.3-47.7,44.8s.4,44.2,14.9,59.6l-3.3,12-.4,1.5-42.4,154.6-3.9,14.3c-20.3,5.8-37.2,21.8-43.2,43.6-6.4,23.5,1.4,47.5,18.2,62.9l13-47.5c1.9-6.8,8.8-10.7,15.6-8.9l30.5,8.4c6.8,1.9,10.7,8.8,8.9,15.6l-13,47.4c22.3-4.6,41.3-21.3,47.7-44.8,6-21.9-.4-44.2-14.9-59.6l5.9-21.6,41.3-150.6Z"/>
  <circle class="st1" cx="146.7" cy="441.4" r="121.1"/>
  <path class="st0" d="M150.9,374.9l13,40.1c.6,1.8,2.3,3,4.1,3h42.1c4.2,0,6,5.4,2.6,7.9l-34.1,24.8c-1.5,1.1-2.2,3.1-1.6,4.9l13,40.1c1.3,4-3.3,7.4-6.7,4.9l-34.1-24.8c-1.5-1.1-3.6-1.1-5.1,0l-34.1,24.8c-3.4,2.5-8-.9-6.7-4.9l13-40.1c.6-1.8,0-3.8-1.6-4.9l-34.1-24.8c-3.4-2.5-1.7-7.9,2.6-7.9h42.1c1.9,0,3.6-1.2,4.1-3l13-40.1c1.3-4,7-4,8.3,0Z"/>
</svg>