<?xml version="1.0" encoding="UTF-8"?>
<svg id="Ebene_1" xmlns="http://www.w3.org/2000/svg" version="1.1" viewBox="0 0 800 800">
  <!-- Generator: Adobe Illustrator 29.6.1, SVG Export Plug-In . SVG Version: 2.1.1 Build 9)  -->
  <defs>
    <style>
      .st0 {
        fill: #df8430;
      }

      .st1 {
        fill: #192430;
      }
    </style>
  </defs>
  <path class="st1" d="M399.9,732.7c-3.8,0-7.6,0-11.4-.2-87.5-2.9-169.8-39.1-231.7-102-62-62.9-97-145.7-98.6-233.2-1.7-93.8,33.8-182,100.1-248.2,64.6-64.6,150.4-100.1,241.6-100.1s4.4,0,6.6,0c87.5,1.6,170.3,36.6,233.2,98.6,62.9,62,99.1,144.3,102,231.7.8,25.9-1.2,51.8-6.1,77-1.5,7.8-5.6,15-11.4,20.2l-275.5,246c-5.8,5.2-13.4,8.4-21.3,9-9,.7-18.3,1.1-27.5,1.1ZM399.9,61.8c-87.8,0-170.4,34.2-232.6,96.4-63.8,63.8-98,148.6-96.3,238.9,3.2,175.2,142.9,316.9,317.9,322.6,3.6.1,7.3.2,10.9.2,8.8,0,17.7-.3,26.5-1,5.3-.4,10-2.4,13.8-5.8l275.5-246c3.8-3.4,6.3-7.9,7.3-13,4.7-24.2,6.7-49.2,5.9-74.1-5.7-175-147.4-314.7-322.6-318-2.1,0-4.2,0-6.3,0Z"/>
  <path class="st1" d="M405.9,432.2c-3.5,0-6.4-2.8-6.4-6.3-.6-42.7,17.9-82.8,50.8-110,25-20.7,56.6-32.1,88.9-32.1s19.3,1,28.8,3c1.7.4,3.1,1.3,4.1,2.8.9,1.4,1.3,3.2.9,4.8-.6,3-3.3,5.1-6.3,5.1-.4,0-.9,0-1.3-.1-8.6-1.8-17.4-2.7-26.2-2.7-29.3,0-58,10.3-80.7,29.1-29.9,24.7-46.8,61.1-46.2,99.9,0,1.7-.6,3.3-1.8,4.6-1.2,1.2-2.8,1.9-4.5,1.9h0Z"/>
  <path class="st1" d="M434.4,435c-9.6,0-19.3-1-28.8-3-3.5-.7-5.7-4.1-5-7.6.6-3,3.3-5.1,6.3-5.1s.9,0,1.3.1c8.6,1.8,17.4,2.7,26.2,2.7,29.3,0,58-10.3,80.7-29.1,29.9-24.7,46.8-61.1,46.2-99.9,0-1.7.6-3.3,1.8-4.6s2.8-1.9,4.5-1.9h0c3.5,0,6.4,2.8,6.4,6.3.6,42.7-17.9,82.8-50.8,110-25,20.7-56.6,32.1-88.9,32.1Z"/>
  <path class="st1" d="M393,432.2c-1.7,0-3.3-.7-4.5-1.9-1.2-1.2-1.8-2.9-1.8-4.6.6-38.8-16.2-75.2-46.2-99.9-22.7-18.8-51.4-29.1-80.7-29.1s-17.5.9-26.2,2.7c-.4,0-.9.1-1.3.1-3,0-5.7-2.2-6.3-5.1-.4-1.7,0-3.4.9-4.8.9-1.4,2.4-2.4,4.1-2.8,9.5-2,19.2-3,28.8-3,32.2,0,63.8,11.4,88.9,32.1,32.9,27.2,51.5,67.3,50.8,110,0,3.5-2.9,6.3-6.4,6.3h-.1Z"/>
  <path class="st1" d="M365.6,435c-32.2,0-63.8-11.4-88.9-32.1-32.9-27.2-51.5-67.3-50.8-110,0-3.6,2.8-6.3,6.4-6.3h.1c3.6,0,6.4,3,6.3,6.5-.6,38.8,16.2,75.2,46.2,99.9,22.7,18.8,51.4,29.1,80.7,29.1s17.5-.9,26.2-2.7c.4,0,.9-.1,1.3-.1,3,0,5.7,2.2,6.3,5.1.3,1.7,0,3.4-.9,4.8s-2.4,2.4-4.1,2.8c-9.5,2-19.2,3-28.8,3Z"/>
  <path class="st1" d="M400,565c-3.5,0-6.4-2.6-6.4-5.9v-136.1c0-3.3,2.9-5.9,6.4-5.9s6.4,2.6,6.4,5.9v136.1c0,3.3-2.9,5.9-6.4,5.9Z"/>
  <path class="st0" d="M443.7,726.8h0c-1.5.6-3,1.3-4.5,1.9h0c-3.5,0-6.4-2.9-6.4-6.4,0-5.4,1-132.7,87.8-210.7,42.7-38.4,98.8-57.8,166.9-57.8s27.9.8,42.5,2.3c1.7.2,3.2,1,4.3,2.4.5.7.9,1.4,1.2,2.2,0,0,.3,1.1.2,2.5-.2,1.9-2.9,6.2-7.7,10.8-94.7,84.3-189.5,168.6-284.2,252.9Z"/>
</svg>