<?xml version="1.0" encoding="UTF-8"?>
<svg id="Ebene_1" xmlns="http://www.w3.org/2000/svg" version="1.1" viewBox="0 0 800 800">
  <!-- Generator: Adobe Illustrator 29.6.1, SVG Export Plug-In . SVG Version: 2.1.1 Build 9)  -->
  <defs>
    <style>
      .st0 {
        stroke: #192430;
        stroke-linejoin: round;
      }

      .st0, .st1 {
        fill: none;
        stroke-linecap: round;
        stroke-width: 12px;
      }

      .st1 {
        stroke: #df8430;
        stroke-miterlimit: 10;
      }
    </style>
  </defs>
  <line class="st1" x1="315.3" y1="114.8" x2="359.7" y2="159.1"/>
  <line class="st1" x1="512.5" y1="114.8" x2="468.2" y2="159.1"/>
  <line class="st1" x1="413.9" y1="83.4" x2="413.9" y2="146.1"/>
  <path class="st0" d="M347,426l43.1-74.7c4.5-7.8,12-13.5,20.7-15.9,8.7-2.3,18-1.1,25.8,3.4,7.8,4.5,13.5,12,15.9,20.7,2.3,8.7,1.1,18-3.4,25.9l-104.2,180.5c-19,32.9-49.7,54.9-83.8,63.8-23.8,6.2-44.2,21.7-56.5,43-6.9,11.9-12.7,22-12.7,22"/>
  <path class="st0" d="M418.5,502l36.6,63.4c20.2,35,53.6,57.7,90.3,65.3,18.8,3.9,35.1,15.6,44.7,32.3,8.9,15.5,18,31.2,18,31.2"/>
  <path class="st0" d="M288,392s39-67.6,62.4-108c9.4-16.3,30.2-21.9,46.5-12.5h0c16.3,9.4,21.9,30.2,12.5,46.5-23.3,40.4-62.4,108-62.4,108"/>
  <path class="st0" d="M44.4,609.5s8.3-14.3,16.6-28.7c9.4-16.3,11.6-35.7,6-53.6-4.1-13-5.9-26.7-5.1-40.8l9-171.8c.7-13.5,10-25,23.1-28.5,10.4-2.8,21.4-.5,29.9,6.1,8.4,6.6,13.3,16.8,13.1,27.6l-1.3,64"/>
  <path class="st0" d="M755.6,609s-8.3-14.3-16.6-28.7c-9.4-16.3-11.6-35.7-6-53.6,4.1-13,5.9-26.7,5.1-40.8l-9-171.8c-.7-13.5-10-25-23.1-28.5-10.4-2.8-21.4-.5-29.9,6.1-8.4,6.6-13.3,16.8-13.1,27.6,0,0,.4,20.1.8,37.8.3,14.9-4.6,29.5-13.9,41.3-24,30.4-30.3,70.9-20.5,109.9"/>
  <path class="st0" d="M229,357.9s50.1-86.8,77.3-133.9c4.5-7.8,12-13.5,20.7-15.9,8.7-2.3,18-1.1,25.8,3.4h0c7.8,4.5,13.5,12,15.9,20.7,2.3,8.7,1.1,18-3.4,25.8-27.2,47.1-77.3,133.9-77.3,133.9"/>
  <path class="st0" d="M571,357.4s-50.1-86.8-77.3-133.9c-4.5-7.8-12-13.5-20.7-15.9-8.7-2.3-18-1.1-25.8,3.4h0c-7.8,4.5-13.5,12-15.9,20.7-2.3,8.7-1.1,18,3.4,25.8,27.2,47.1,77.3,133.9,77.3,133.9"/>
  <path class="st0" d="M135.5,383.6l96.9-167.8c9.4-16.3,30.2-21.9,46.5-12.5,7.8,4.5,13.5,12,15.9,20.7,2.3,8.7,1.1,18-3.4,25.9l-62.4,108"/>
  <path class="st0" d="M661.1,377.3l-93.5-161.9c-9.4-16.3-30.2-21.9-46.5-12.5-7.8,4.5-13.5,12-15.9,20.7-2.3,8.7-1.1,18,3.4,25.9l62.4,108"/>
</svg>