<?xml version="1.0" encoding="UTF-8"?>
<svg id="Ebene_1" xmlns="http://www.w3.org/2000/svg" version="1.1" viewBox="0 0 800 800">
  <!-- Generator: Adobe Illustrator 29.6.1, SVG Export Plug-In . SVG Version: 2.1.1 Build 9)  -->
  <defs>
    <style>
      .st0 {
        fill: #df8430;
      }

      .st1 {
        fill: #192430;
      }

      .st2 {
        fill: none;
        stroke: #192430;
        stroke-linecap: round;
        stroke-linejoin: round;
        stroke-width: 12px;
      }
    </style>
  </defs>
  <path class="st0" d="M174.2,254c7.4,10.1,19,25.7,33.5,44.6,29.9,39.1,37.4,46.9,41.5,62,3.4,12.5,5.9,36-12,70.2-14.4-16-37.2-45.5-51.2-88.4-11.9-36.4-12.8-68.1-11.7-88.4Z"/>
  <path class="st0" d="M185.9,199.2s33.1-32.3,57-30.6c24,1.7,33.8,12.2,33.6-23-.2-32,23.5-46.6,33-48.3,12.8-2.4-2.6,31.4,12.8,30.6,21.7-1.1,22.4-24.4,40.8-25.2,25.4-1.1,39.6-6.4,43.3-27.4,3.1-17.9-39.3-24.9-39.3-24.9h0s-70.4,16.6-113,47c-22.6,16.2-50,45.2-68,101.8"/>
  <path class="st0" d="M482.3,64.1c-1.1.9-4,4.2-5.1,8.8-1.6,6.5-.3,10.5,2.2,15.6,7.7,15.4-7.7,30.2-18.6,25-10.9-5.1-29.5-6.4-42.3,11.2-12.8,17.6-13.1,26.6-12,41.4,1.1,14.8-59.2,15.4-62.4,39.8-3.2,24.4,55-7.7,62.4,0,20,20.7,33.3,11,57.6,5.1,26.1-6.3,11.7,60.6,68.9,58.8,46.6-1.4,25.6,59.9,41.9,60,19.9,0,15.9-46.8,36.8-55.4,6.3-2.6,9,1.5,12.6-.8,14.4-9-.5-72.7-33.5-123.6-39.1-60.1-98.4-94.1-108.5-86Z"/>
  <g>
    <path class="st1" d="M485.3,735.6c-.5,0-1,0-1.5.1l-246.1,16.1c-1.5.1-3-.4-4.2-1.4-1.2-1-1.9-2.4-2-4-.2-3.1,2.2-5.9,5.3-6.1l246.2-16.1c.4,0,.8,0,1.2,0,10.8-.9,21.1-4.9,29.7-11.5l101.9-111.4c7.6-6.8,11.6-13.8,13.8-18.3,1.7-3.5,11.1-23.2,2.8-33.6-3.2-4-7.9-5.8-7.9-5.8-3.6-1.4-7.2-1.4-10.4-1.4-1.3,0-2.5,0-3.8.2-7.8.7-15.3,3.6-21.6,8.4l-90.2,69.1c-.9.7-1.9,1.1-3,1.2-2,.2-3.9-.7-5.1-2.2-1.9-2.5-1.5-6.2,1.1-8.1l90.2-69.1c8.1-6.2,17.6-9.9,27.6-10.8,4.1-.4,10.6-1,18.1,1.6,1.3.4,6.6,2.3,10.4,5.5,11.8,10.2,8.8,34.2,2.5,49.1-2.3,5.5-7.2,14.7-17.5,23.5l-101.9,111.4c-10.4,7.9-22.7,12.7-35.7,13.9Z"/>
    <path class="st1" d="M460.9,661.1c-.3,0-.6,0-.9,0l-113.6,7.4c-3.2.2-5.9-2.2-6.1-5.4-.2-3.1,2.2-5.9,5.3-6.1l113.7-7.4c.2,0,.5,0,.7,0,17.3-1.5,30.5-16.8,29.3-34.2-.6-8.6-4.4-16.4-10.9-22.1-6.5-5.7-14.7-8.5-23.3-7.9l-54.4,3.6c-13.7.9-27.7-1.6-40.6-7.2-18.4-8-54.7-21-92.1-17.7-24.4,2.1-45.5,10.7-62.6,25.6-12,10.4-22.6,18.2-33.3,24.4l-52.6,30.7c-.7.4-1.6.7-2.4.8-1.6.1-3.1-.4-4.3-1.4-.5-.4-.9-.9-1.2-1.4-1.6-2.7-.7-6.3,2.1-7.9l52.6-30.7c10.1-5.9,20.1-13.3,31.6-23.2,19.1-16.5,42.2-26.1,68.9-28.4,40.2-3.5,78.7,10.2,98.1,18.6,11.2,4.9,23.4,7.1,35.3,6.3l54.4-3.6c24-1.6,44.9,16.7,46.5,40.8,1.5,23.5-16.3,44.4-39.8,46.4h0Z"/>
  </g>
  <circle class="st2" cx="398.8" cy="273.7" r="225.5"/>
  <path class="st0" d="M416.8,258.6c-9.5-8-21.3-12.7-33.7-12.6-24.4.3-59.2,8.8-66.4,53.1-11.4,69.7,67.4,29.1,76.5,59.4,9.1,30.3-.6,83.9,23.4,88.5,24,4.6,105-77.6,101.1-110.8-4-33.1-28-10.2-43.4-54.5-13.8-39.5-32.7-2.3-57.5-23.2Z"/>
</svg>