<?xml version="1.0" encoding="UTF-8"?>
<svg id="Ebene_1" xmlns="http://www.w3.org/2000/svg" version="1.1" viewBox="0 0 800 800">
  <!-- Generator: Adobe Illustrator 29.6.1, SVG Export Plug-In . SVG Version: 2.1.1 Build 9)  -->
  <defs>
    <style>
      .st0 {
        fill: #df8430;
      }

      .st1 {
        stroke: #fff;
      }

      .st1, .st2 {
        fill: none;
        stroke-linecap: round;
        stroke-linejoin: round;
        stroke-width: 12px;
      }

      .st2 {
        stroke: #192430;
      }
    </style>
  </defs>
  <g>
    <g>
      <polyline class="st2" points="257.2 344.5 281.2 368.5 329.3 320.4"/>
      <line class="st2" x1="389.3" y1="344.5" x2="509.5" y2="344.5"/>
    </g>
    <g>
      <polyline class="st2" points="257.2 452.6 281.2 476.6 329.3 428.5"/>
      <line class="st2" x1="389.3" y1="452.6" x2="509.5" y2="452.6"/>
    </g>
    <g>
      <polyline class="st2" points="257.2 560.7 281.2 584.7 329.3 536.7"/>
      <line class="st2" x1="509.5" y1="560.7" x2="389.3" y2="560.7"/>
    </g>
  </g>
  <path class="st2" d="M257.2,152.2h-44.8c-23.2,0-42,21.5-42,48.1v444.5c0,33.2,23.5,60.1,52.5,60.1h349.6"/>
  <path class="st2" d="M545.5,152.2h44.8c23.2,0,42,21.5,42,48.1v404.2"/>
  <path class="st2" d="M545.5,140.2v84.1h-288.3v-84.1c0-13.3,10.8-24,24-24h60.1c0-26.5,21.5-48.1,48.1-48.1h24c26.5,0,48.1,21.5,48.1,48.1h0s60.1,0,60.1,0c13.3,0,24,10.8,24,24Z"/>
  <circle class="st0" cx="625.4" cy="652.1" r="91.5"/>
  <polyline class="st1" points="585.5 648.8 614.1 680.3 665.3 624"/>
</svg>