<?xml version="1.0" encoding="UTF-8"?>
<svg id="Ebene_1" xmlns="http://www.w3.org/2000/svg" version="1.1" viewBox="0 0 800 800">
  <!-- Generator: Adobe Illustrator 29.6.1, SVG Export Plug-In . SVG Version: 2.1.1 Build 9)  -->
  <defs>
    <style>
      .st0 {
        fill: #df8430;
      }

      .st1 {
        fill: none;
        stroke: #192430;
        stroke-linecap: round;
        stroke-linejoin: round;
        stroke-width: 12px;
      }
    </style>
  </defs>
  <path class="st0" d="M533.7,619.5c0-11.4,10.7-23,29.4-31.7,20.4-9.6,47.7-14.8,76.8-14.8s56.4,5.3,76.8,14.8c18.7,8.8,29.4,20.3,29.4,31.7s-10.7,23-29.4,31.7c-20.4,9.6-47.7,14.8-76.8,14.8s-56.4-5.3-76.8-14.8c-18.7-8.8-29.4-20.3-29.4-31.7Z"/>
  <path class="st0" d="M746,645.6v29.8c0,.2,0,.4,0,.6,0,10.2-8.2,18.3-15.1,23.4-19.7,14.5-53.8,23.1-91.1,23.1s-71.3-8.6-91-23.1c-6.9-5.1-15.1-13.2-15.1-23.4s-2.4-5.7-5.4-6v-30.8c15.9,22.9,59.3,38.9,111.6,38.9s87.2-13.1,106.2-32.5Z"/>
  <path class="st1" d="M79,608.2h0c0,1,0,1.8.2,2.8,0,1.1.3,2.3.6,3.4.2,1,.5,1.9.9,2.8.2.6.4,1.1.7,1.7.3.6.6,1.1.9,1.8,4.9,9.5,15.3,18,29.7,24.7,2.5,1.2,5.2,2.4,8,3.4,3.5,1.4,7.1,2.7,11,3.7,5.3,1.7,10.8,3.1,16.7,4.2,6.3,1.2,12.9,2.2,19.7,2.9,7.7.9,15.7,1.2,23.9,1.2s15.3-.4,22.6-1.1c7.4-.7,14.4-1.7,21.1-3.1,3.4-.7,6.6-1.4,9.8-2.3,3.5-.9,6.9-1.8,10.2-2.9,2.5-.7,4.8-1.5,7.1-2.5.2,0,.5,0,.7-.3,2.8-1,5.5-2.1,8-3.4,6.3-3,12-6.2,16.6-9.9,1.2-1,2.3-1.8,3.4-2.8s2.1-1.9,3-2.9c1-1,1.8-1.8,2.6-2.9,1.5-1.8,2.8-3.6,3.8-5.6.5-.9.9-1.7,1.2-2.6.3-.6.5-1.1.7-1.7.4-.9.7-1.8.9-2.8.3-1.1.5-2.2.6-3.4.2-1,.2-1.8.2-2.7h0"/>
  <path class="st1" d="M303.3,664.8c0,10.4-6.5,20.1-17.6,28.3-19.9,14.6-54.8,24.3-94.6,24.3s-74.6-9.7-94.5-24.3c-11.1-8.2-17.6-17.9-17.6-28.3"/>
  <line class="st1" x1="79" y1="664.8" x2="79" y2="608.3"/>
  <line class="st1" x1="303.4" y1="664.8" x2="303.4" y2="608.3"/>
  <path class="st1" d="M79,495.3h0c0,1,0,1.8.2,2.7,0,.8.2,1.4.3,2.2.2,1.1.5,2.1.8,3.1.6,1.7,1.3,3.5,2.3,5.2s2,3.5,3.3,5.1c1.2,1.5,2.6,3.1,4.2,4.6,1.1,1.1,2.3,2.1,3.6,3.3,5,4,11.1,7.8,18.2,11.1,2.5,1.2,5.2,2.4,8,3.4,3.5,1.4,7.1,2.7,11,3.7,5.3,1.7,10.8,3.1,16.7,4.2,6.3,1.2,12.9,2.2,19.7,2.9,7.7.9,15.7,1.2,23.9,1.2s15.3-.4,22.6-1.1c7.4-.7,14.4-1.7,21.1-3.1,3.4-.7,6.6-1.4,9.8-2.3,3.5-.9,6.9-1.8,10.2-2.9,2.5-.7,4.8-1.5,7.1-2.5.2,0,.5-.2.7-.3,2.8-1,5.5-2.1,8-3.4,4.5-2.1,8.7-4.4,12.4-6.9,1.3-.9,2.7-1.8,3.9-2.8,0,0,.2-.2.3-.2,1.4-1.1,2.8-2.2,4-3.4,1.2-1.2,2.3-2.3,3.4-3.5.3-.2.5-.5.7-.8,1.1-1.1,1.9-2.2,2.7-3.4.8-1.1,1.4-2.2,2.1-3.4.4-.8.8-1.5,1.1-2.4,1.1-2.6,1.8-5.2,2.1-8,.2-.8.2-1.5.2-2.3v-.3h0"/>
  <path class="st1" d="M303.3,551.8c0,10.4-6.5,20.1-17.6,28.3-19.9,14.6-54.8,24.3-94.6,24.3s-74.6-9.7-94.5-24.3c-11.1-8.2-17.6-17.9-17.6-28.3"/>
  <line class="st1" x1="79" y1="608.3" x2="79" y2="495.4"/>
  <line class="st1" x1="303.3" y1="608.3" x2="303.3" y2="495.4"/>
  <ellipse class="st1" cx="191.2" cy="382.5" rx="112.2" ry="52.6"/>
  <path class="st1" d="M303.3,438.9c0,10.4-6.5,20.1-17.6,28.3-19.9,14.6-54.8,24.3-94.6,24.3s-74.6-9.7-94.5-24.3c-11.1-8.2-17.6-17.9-17.6-28.3"/>
  <line class="st1" x1="79" y1="495.4" x2="79" y2="382.5"/>
  <line class="st1" x1="303.3" y1="495.4" x2="303.3" y2="382.5"/>
  <line class="st1" x1="303.3" y1="664.8" x2="303.3" y2="608.3"/>
  <line class="st1" x1="527.7" y1="664.8" x2="527.7" y2="608.3"/>
  <path class="st1" d="M303.3,610.6h0c0,1,0,1.8.2,2.7,0,.8.2,1.4.3,2.2.2,1.1.5,2.1.8,3.1.6,1.7,1.3,3.5,2.3,5.2s2,3.5,3.3,5.1c1.2,1.5,2.6,3.1,4.2,4.6,1.2,1.1,2.3,2.1,3.6,3.3,5,4,11.1,7.8,18.2,11.1,2.5,1.2,5.2,2.4,8,3.4,3.5,1.4,7.1,2.7,11,3.7,5.3,1.7,10.8,3.1,16.7,4.2,6.3,1.2,12.9,2.2,19.7,2.9,7.7.9,15.7,1.2,23.9,1.2s15.3-.4,22.6-1.1c7.4-.7,14.4-1.7,21.1-3.1,3.4-.7,6.6-1.4,9.8-2.3,3.5-.9,6.9-1.8,10.2-2.9,2.5-.7,4.8-1.5,7.1-2.5.2,0,.5-.2.7-.3,2.8-1,5.5-2.1,8-3.4,4.5-2.1,8.7-4.4,12.4-6.9,1.3-.9,2.7-1.8,3.9-2.8,0,0,.2-.2.3-.2,1.4-1.1,2.8-2.2,4-3.4,1.2-1.2,2.3-2.3,3.4-3.5.3-.2.5-.5.7-.8,1.1-1.1,1.9-2.2,2.7-3.4.8-1.1,1.4-2.2,2.1-3.4.4-.8.8-1.5,1.1-2.4,1.1-2.6,1.8-5.2,2.1-8,.2-.8.2-1.5.2-2.3v-.3h0"/>
  <path class="st1" d="M527.7,667.1c0,10.4-6.5,20.1-17.6,28.3-19.9,14.6-54.8,24.3-94.6,24.3s-74.6-9.7-94.5-24.3c-11.1-8.2-17.6-17.9-17.6-28.3"/>
  <line class="st1" x1="303.3" y1="608.3" x2="303.3" y2="495.4"/>
  <line class="st1" x1="527.7" y1="608.3" x2="527.7" y2="495.4"/>
  <ellipse class="st1" cx="415.5" cy="497.8" rx="112.2" ry="52.6"/>
  <path class="st1" d="M527.7,554.2c0,10.4-6.5,20.1-17.6,28.3-19.9,14.6-54.8,24.3-94.6,24.3s-74.6-9.7-94.5-24.3c-11.1-8.2-17.6-17.9-17.6-28.3"/>
  <line class="st1" x1="303.3" y1="495.4" x2="303.3" y2="382.5"/>
  <line class="st1" x1="527.7" y1="667.1" x2="527.7" y2="554.2"/>
  <line class="st1" x1="527.7" y1="664.8" x2="527.7" y2="608.3"/>
  <line class="st1" x1="527.7" y1="608.3" x2="527.7" y2="495.4"/>
  <line class="st1" x1="527.7" y1="667.1" x2="527.7" y2="554.2"/>
  <path class="st1" d="M114.9,85.7c47-3.3,198.6-8,349.1,92.2,156.8,104.3,209.8,254.3,223.6,298.1"/>
  <polyline class="st1" points="619.2 446.5 687.6 476 717.1 407.5"/>
</svg>