<?xml version="1.0" encoding="UTF-8"?>
<svg id="Ebene_1" xmlns="http://www.w3.org/2000/svg" version="1.1" viewBox="0 0 800 800">
  <!-- Generator: Adobe Illustrator 29.6.1, SVG Export Plug-In . SVG Version: 2.1.1 Build 9)  -->
  <defs>
    <style>
      .st0 {
        fill: #df8430;
      }

      .st0, .st1 {
        fill-rule: evenodd;
      }

      .st1 {
        fill: #192430;
      }
    </style>
  </defs>
  <path class="st1" d="M622.2,522.4c-5.8-11.8-13.9-34.3-18.7-52.5-6.3-23.8-12.2-56.5-22.5-124.8-9.2-60.8-14.9-86.8-27.9-126.3-16.2-49.1-51.2-117.5-59.3-119.6,0,0-.1,0-.6,0-3.1,0-12.4,1.4-21.5,3.2-44.4,8.8-71.8,21.3-122.1,56-41.8,28.8-69,41.4-103.9,48.3-19.7,3.9-35.5,5.3-58.4,5.3s-9.4,0-14.8-.2c-7.5-.2-13.4-.3-18.3-.3-11.1,0-16.4.5-27.9,2.2-10.2,1.5-16.8,3-18.4,6-1.1,2.1,0,5.8,3.5,12.7,11.1,21.4,26.1,62.3,33.5,91.2,12.3,48.1,17.8,93.1,19.8,160.5,1.5,52.5,2.8,67.2,8.3,92.3,2.7,12.6,4.6,16.6,7.8,16.6s6.7-2.4,10.8-4.9c9.2-5.8,24.4-9.7,37.8-9.7s9.2.5,12.9,1.5c5.2,1.4,6.4,3.2,9.7,11.4,3.9,9.5,13.2,25.5,19.5,33.6l4.4,5.7-10.7,39.2c-8,29.2-10.2,38.1-9.3,40.6l.9,2.5,86,23.5c64.8,17.7,83,22.5,87.5,22.5s.6,0,.6,0,0,0,0,0c1.7-1,4.9-12.2,12.4-39.4l10.8-39.5,7.4-8.8c16.5-19.7,27.7-42.3,36.3-73.3l6.4-23.1,15.7-8.5c25.3-13.7,63.7-24.8,91.3-26.3,8-.4,13.7-1.2,15-3.5,1.4-2.4-1.1-8.1-4-13.9ZM494.2,554.7c-1.7,17.3-12.3,57.9-18.5,71.3-6,12.8-15.9,28.7-24.2,38.5l-6.8,8.1-20,73.3-155.9-42.5,20.3-74.3-2.8-4.2c-1.8-2.7-6.5-9.3-10.4-14.9-4.9-6.9-10.2-17.5-16.2-32.5-13.1-32.6-36-87.8-47.1-113.5-12.8-29.6-13-30.2-11.3-36.6,2-7.3,8.3-11.7,16.9-11.7s17.3,4.3,23.5,11.5c2.4,2.8,11.8,17.5,21.3,33.4,16.2,27,20.1,33.3,23.2,33.3s1,0,1.6-.2l2.9-.5,59.6-213.2,4.6-4.3c4-3.7,8.9-5.7,14-5.7,8.8,0,17,6.2,20.7,15.7,1.9,4.9,1.8,5.6-15.4,70.9-14.2,54.2-16.9,64.5-15.5,66.2,1.4,1.7,2.7,2.5,4.3,2.5.8,0,1.7-.2,2.7-.6,2.1-.8,5.6-13.2,26.6-87.9l24.9-88.6,4.4-3.6c2.4-2,6.6-4,9.6-4.5,1.6-.3,3.2-.5,4.8-.5,11.2,0,20.3,7.6,22.6,18.9l1.4,7-23.4,85.9c-17.4,63.6-22.9,84.4-22,86.6.9,1.6,2.6,2.5,4.5,2.5s2-.2,2.9-.7c2.1-1,4.7-10.1,19.9-66l.8-2.9q18.7-68.5,28.4-73.7l.4-.2c2.7-1.4,5.7-2.2,8.8-2.2,9.9,0,19,7.2,21,16.8,1.3,6.1.8,8.1-17.2,73.8-16.6,60.8-18.1,66.5-16.6,69,.9,1.6,2.6,2.9,3.3,3.1,0,0,.3,0,.6,0,1.2,0,2.7-.4,3.8-1.1,2.4-1.4,3.3-3.9,12.8-38.9,11.2-40.9,11.8-43.4,21.4-47.4,2.3-1,4.8-1.5,7.3-1.5,8.3,0,15.6,5.3,17.8,12.9,1.4,5,.7,8.1-18.8,82.2-17.1,65-20.4,78.5-21.6,90.4ZM603.2,528.1c-29.1,4.2-55.9,11.8-79.8,22.7l-17.5,8,1.6-13.3c.8-6.6,8.2-35.8,20.9-82.4,16.1-59,19.5-72.7,19.2-77.3-1-13.7-9.5-23.7-23.3-27.4-3.4-.9-7-1.5-9.5-1.5s-1.6,0-1.8.2c-1.6.4-3.7.8-4.9.8s-.5,0-.7,0l-.8-.2-.4-.7c-.4-.6-1.1-1.8,3.4-18.2,5.8-21.3,5.7-27.4-.5-38.5-4.7-8.4-11.9-14.5-20-16.7-1.4-.4-4.6-.6-8.3-.6s-6.7.2-9.3.5c-.3,0-.6,0-.8,0-1.3,0-2-.6-2.4-1.1-1.1-1.4-.7-3.5.9-9.4,3.9-14.4,1-26.1-8.9-35.8-4.9-4.7-6.6-5.6-15.3-8-4.9-1.3-8.2-1.9-11-1.9-4.4,0-8.4,1.3-15.2,5-9.1,5-14.2,12.5-17.9,25.9l-3.8,13.9-6.9-6.4c-4.9-4.6-12.9-7.3-21.2-7.3s-13,1.8-17.7,5c-.7.5-1.3.9-1.9,1.3q-7.9,5.2-31,87.8l-33.8,120.5-17-27.9c-18.6-30.6-22.7-34.7-39.5-39.3-6.2-1.7-9.5-2.5-12.1-2.5s-3.7.4-6.6,1.3c-4.3,1.3-9,4-12.3,7-4.6,4.2-5.5,5.9-7.3,12.9-1.3,5.1-1.8,9.7-1.1,12.6.5,2.3,5.5,15.2,12.2,30.8,8.5,19.9,18.5,43.8,26.8,63.9,3.9,9.5,7.2,17.5,9.4,23.2,1.2,2.9,2,5.2,2.6,6.8,1,2.6,1.5,4.1-.2,4.8-.4.2-.6.3-4,.3s-4.3,0-6.8,0c-.5,0-1.1,0-1.6,0-10.3,0-22.5,2.3-32.6,6.1-1,.4-6.2,2.3-8.2,2.3s-1.7-.6-1.9-1c-.4-.7-1.3-5.2-2.7-13.6-2.7-16.3-4.2-37-5.6-81.9-2-60.5-6.8-103.3-16.2-143.2-7.7-32.6-19.7-69-30.7-92.8-6-12.9-5.6-14.3-5.5-14.8.4-1.5,1.5-2.7,12.2-3.6,6.5-.6,15.2-.9,24.5-.9s7.5,0,11.2.1c5.4.1,10.3.2,15,.2,22.8,0,40.4-1.6,60.8-5.7,37.5-7.4,62.7-19.2,112.3-52.7,16.2-10.9,35.2-23,42.4-26.8,22.4-12.1,46.1-20.3,72.2-25,5.9-1.1,11.3-1.8,13-1.8s.6,0,.9,0c1,.2,2.4.6,15.1,24,6,11,14.1,26.6,18.9,37.4,10.3,23,19.6,48.5,26,71.7,10.4,37.6,13.8,55,24,124.6,9.8,66.9,19.6,110.5,31.5,141.3l6.2,16.1-7,1Z"/>
  <path class="st0" d="M679.1,459.9c-4.4.8-6.1.3-8.6-9.1-3.3-12.2-10.4-20.5-21.7-25.5-9.8-4.4-9.8-5.1-9.6-8.3.2-3.1.2-3.9,9.3-6.3,4-1.1,10.1-4.1,13.6-6.7,5.7-4.3,13.6-15.6,14-21.3,0-.5,1-1.8,2.4-2.7,1.3-.8,2.4-1.3,3.3-1.5,1.8-.4,4,0,6.6,9.5,3.4,12.6,11.4,21.8,22.6,26.1,4.4,1.7,7.6,3.6,8,4.1.7,1,.9,2.6.4,4.1-.5,1.7-1.6,3.1-2.9,3.6-21.6,8.3-25.8,11.8-32.2,26.7-2.4,5.6-3.7,6.9-5,7.1h0Z"/>
  <path class="st0" d="M616.1,284.9c-.3,0-.7,0-1.1,0-2.5-.1-4.6-2.1-7-11.1-3.2-12.1-10.5-19.2-27.9-27.1-2.2-1-3.4-2.8-3.3-4.8.1-2.3,1.8-4.2,4.4-5.1,18.9-6.2,25.3-11.2,31.1-24.4,1.9-4.3,3.9-7.8,4.4-8.4,0,0,.5-.4,1.4-.6,1.6-.3,3.6,0,4.7.7.5.6,1.9,3.5,3.2,7.7,1.3,4.2,3.5,9.8,4.9,12.3,3,5.6,12.9,13.3,20.4,15.8,5.7,1.9,6.4,3.9,5.8,7.3-.3,1.8-1.2,2.9-2.8,3.4-18.8,6.4-28.2,13.8-32.4,25.8-1.8,5.1-3.9,8-6.2,8.5h0Z"/>
  <path class="st0" d="M250.5,183.7c-3,.7-5.8-2.3-7.2-7.7-2.2-8.4-9-15.9-17-18.4-2.8-.9-5.7-3-6.5-4.3-.8-1.3-1-2.5-.6-3.7.8-2.2,3.7-4.2,8.2-5.8,9-3.2,13.3-7.1,16.5-15.2,1.3-3.4,3.2-6.9,4.1-7.8.7-.8,1.6-1.4,2.4-1.6,3.1-.8,6.6,2.9,8,8.7,1.7,6.9,9.2,14.7,16.4,17.2,8.4,2.9,8.4,6.1,8.3,7.2,0,2.1-1.1,4.8-8.5,6.9-7.5,2.1-14.9,8.9-17.4,16.2-1.6,4.7-4.1,7.8-6.7,8.5h0Z"/>
  <path class="st0" d="M164.2,134.7c-.8.2-1.8,0-3.3-.3-1.5-.4-2.6-1.3-3.7-4.7-5-16.6-12.5-24.9-26.9-29.8-5.7-1.9-7.4-3.8-7.8-5-.4-1.1,0-2.4,1.1-4,.9-1.3,3.6-3.2,6.2-3.8,13.3-3.4,24.5-13.7,27.8-25.7.9-3.2,2.8-6.1,3.7-6.8,1-.7,2-1.1,2.8-1.4,1.3-.3,4.2-1.1,7.6,9.9,3.8,12.4,12.2,20.9,24.9,25.3,7,2.4,7.3,3.4,7.3,6.4,0,3.2,0,3.9-10.3,7.5-10.7,3.7-19.3,11.7-22.9,21.3-2.9,7.7-4.6,10.7-6.5,11.2h0Z"/>
</svg>