<?xml version="1.0" encoding="UTF-8"?>
<svg id="Ebene_1" xmlns="http://www.w3.org/2000/svg" version="1.1" viewBox="0 0 800 800">
  <!-- Generator: Adobe Illustrator 29.6.1, SVG Export Plug-In . SVG Version: 2.1.1 Build 9)  -->
  <defs>
    <style>
      .st0 {
        fill: #df8430;
      }

      .st1 {
        fill: none;
        stroke: #192430;
        stroke-linecap: round;
        stroke-linejoin: round;
        stroke-width: 12px;
      }
    </style>
  </defs>
  <g>
    <line class="st1" x1="541.1" y1="392.3" x2="541.1" y2="284.8"/>
    <polyline class="st1" points="484.9 228.7 541.1 284.8 597.3 228.7"/>
  </g>
  <path class="st1" d="M539.7,392.3c.9,6.6,1.4,13.3,1.4,20.1,0,77.9-63.2,141.1-141.1,141.1s-141.1-63.2-141.1-141.1,62.9-140.9,140.6-141.1"/>
  <g>
    <path class="st1" d="M395,161.9c-9.4.2-18.7,1-27.9,2.1l-36.3-55.2c-34.9,7.9-67.5,21.6-96.8,40.1-.1,0-.2.1-.3.2l9.2,44.7h0c0,0,4.1,19.9,4.1,19.9-17.4,13.4-33.1,29.1-46.5,46.5l-64.7-13.3c-18.2,28.9-31.8,60.9-39.8,95.1-.2.7-.3,1.3-.5,2l53.2,35,2,1.3c-1.4,10.8-2.2,21.7-2.2,32.8s.8,22.1,2.2,32.9l-55.2,36.3c7.9,35,21.7,67.7,40.3,97.1l64.7-13.3c13.4,17.4,29,33.1,46.5,46.5l-13.3,64.7c14.5,9.1,29.8,17.1,45.7,23.7.6.3,1.2.5,1.8.8.4.2.8.3,1.2.5,8.6,3.5,17.4,6.6,26.3,9.4"/>
    <path class="st1" d="M680.6,276.2c10.5,21.4,18.5,44.1,23.9,67.8l-1.8,1.2-38,25.1-15.4,10.1c1.4,10.8,2.2,21.7,2.2,32.8s-.8,22.1-2.2,32.9l55.2,36.3c-7.9,35-21.7,67.7-40.3,97.1l-2.3-.5-62.4-12.8c-.3.4-.6.8-1,1.2-13.2,16.9-28.5,32.1-45.5,45.2l13.3,64.7c-23.1,14.5-48.2,26.1-74.8,34.2h0"/>
  </g>
  <path class="st1" d="M541.1,61.8c-80.8,0-161.1,67.1-154,159.1,2.7,34.5,17.6,68.3,37.9,93,46.1,56.1,40.8,50.8,42.2,78.4h73.9s73.9,0,73.9,0c1.4-27.6-3.9-22.2,42.2-78.4,20.3-24.7,35.2-58.5,37.9-93,7.1-92-73.3-159.1-154-159.1Z"/>
  <path class="st0" d="M461.2,384.1v29.3c0,44.2,35.8,80,80,80h0c44.5,0,80.4-36.3,80-80.7l-.2-28.5"/>
  <g>
    <path class="st1" d="M395.4,161c-9.5,0-19,.7-28.5,1.9l-35.9-55.4c-34,7.4-67,20.6-97.4,39.4l.4,2.1,8.8,44.4v.6c.1,0,3.6,17.8,3.6,17.8-8.7,6.5-17,13.7-25,21.5-8,7.8-15.2,16.1-21.9,24.7l-64.6-13.8c-19.4,30.2-33,62.9-40.9,96.8l1.9,1.3,52.9,35.5c0,.5-.1,1-.2,1.6-2.8,21.3-2.9,42.9-.3,64.2l-55.4,35.9c5.9,26.7,15.3,52.9,28.2,77.6"/>
    <path class="st1" d="M679.7,278.1c10.3,21.6,18,44.1,23,67.1,0,.1,0,.2,0,.4l-38,24.6h0c0,0-17.3,11.3-17.3,11.3,2.7,21.9,2.5,44-.5,65.7l54.9,36.8c-7.8,33.2-21.1,65.4-39.8,95.1h0c-.4.6-.7,1.2-1.1,1.7l-62.3-13.3-2.3-.5c-6.7,8.6-13.9,16.8-21.9,24.6-8,7.8-16.3,15-25,21.5l12.9,64.8c-30.5,18.9-63.5,32-97.4,39.4l-35.9-55.4c-21.8,2.7-43.9,2.5-65.7-.5l-36.8,54.9c-15-3.5-29.7-8.1-44-13.9-.4-.2-.8-.3-1.2-.5-.6-.2-1.2-.5-1.8-.8-10.1-4.2-20.1-8.9-29.8-14.2h0"/>
  </g>
</svg>