<svg xmlns="http://www.w3.org/2000/svg" width="150" height="150" viewBox="0 0 150 150">
  <g id="athoka-klimatechnik-montage-icon-teaser-energiesparender" transform="translate(16449.807 15236)">
    <rect id="Rectangle_2422" data-name="Rectangle 2422" width="150" height="150" transform="translate(-16449.807 -15236)" fill="#fff" opacity="0"/>
    <rect id="Rectangle_2423" data-name="Rectangle 2423" width="82.554" height="81.333" rx="40.667" transform="translate(-16437.926 -15221.703)" opacity="0.15"/>
    <g id="Group_6881" data-name="Group 6881" transform="translate(-820 -200.428)">
      <path id="Path_104505" data-name="Path 104505" d="M47.581,38.945s-.089-17.6,7.6-25.3,20.93-7.8,25.3-7.6c.2,4.368.092,17.6-7.6,25.3S51.949,39.143,47.581,38.945Z" transform="translate(-15595.275 -15010)" fill="none" stroke="#265aa6" stroke-linecap="round" stroke-linejoin="round" stroke-width="4"/>
      <path id="Path_104506" data-name="Path 104506" d="M47.556,38.966c-3.831.141-14.309-.087-20.439-6.219S20.756,16.135,20.9,12.308c3.829-.143,14.307.087,20.439,6.218,5.361,5.361,6.21,14.045,6.244,18.7Z" transform="translate(-15595.275 -15010)" fill="none" stroke="#265aa6" stroke-linecap="round" stroke-linejoin="round" stroke-width="4"/>
      <path id="Path_104507" data-name="Path 104507" d="M58.945,103.779A39.535,39.535,0,0,1,8.35,79.984l-1.491-5.2a39.565,39.565,0,0,1,.55-18.71c.147-.543.31-1.1.484-1.639a1.559,1.559,0,0,1,1.485-1.092H81.7a1.56,1.56,0,0,1,1.484,1.091,39.3,39.3,0,0,1,1.832,9.911c.044.737.066,1.488.066,2.233a39.536,39.536,0,0,1-26.135,37.2" transform="translate(-15595.275 -15010)" fill="none" stroke="#265aa6" stroke-linecap="round" stroke-linejoin="round" stroke-width="4"/>
      <path id="Path_104508" data-name="Path 104508" d="M52.966,53.347c-.112,2.162,1.121,4.805,3.218,6.9a9.642,9.642,0,0,0,7.259,3.108c2.373-.129,3.1.42,3.3.662.375.451.222,1.376.1,1.89-.092.382-.251.887-.435,1.472-1.068,3.4-3.292,10.464,2.753,14.109a6.681,6.681,0,0,0,3.4,1.123,3.992,3.992,0,0,0,1.389-.247c2.239-.826,3.065-3.3,3.94-5.926a19.407,19.407,0,0,1,1.693-4.07c.9-1.423,3.778-2.542,5.5-5.08" transform="translate(-15595.275 -15010)" fill="none" stroke="#265aa6" stroke-linecap="round" stroke-linejoin="round" stroke-width="4"/>
      <line id="Line_247" data-name="Line 247" y2="14.401" transform="translate(-15547.695 -14971.055)" fill="none" stroke="#265aa6" stroke-linecap="round" stroke-linejoin="round" stroke-width="4"/>
      <path id="Path_104509" data-name="Path 104509" d="M22.827,77.94c-2.877-1.762-5.313-5.765-5.095-7.088A4.443,4.443,0,0,1,18.5,69.1a5.173,5.173,0,0,0,1.013-3.675c-.059-.48.772-1.453,1.609-2.084,1.268-.221,2.2.373,3.533,1.351a5.167,5.167,0,0,0,3.214,1.386c.185-.008.354-.019.511-.029a4.34,4.34,0,0,1,.6-.018c.095.039.422.263,1.414,1.5a5.97,5.97,0,0,0,3.811,2.634A23,23,0,0,1,37.3,71.243c.917.388,1.258.74,1.315.888.083.217-.223.875-.4,1.267a4.644,4.644,0,0,0-.58,1.977c0,.293.023.576.043.85.084,1.121.131,1.739-1,2.537-2.44,1.73-2.73,2.419-3.008,4.866-.03.264-.064.559-.107.894-.078.607-1.014,1.288-2.005,2.009-1.577,1.147-3.537,2.574-4.273,5.16a3.72,3.72,0,0,1-.351.866,3.476,3.476,0,0,1-.353-1.609c-.007-.375-.01-.77-.013-1.179-.03-4.042-.073-9.579-3.74-11.829" transform="translate(-15595.275 -15010)" fill="none" stroke="#265aa6" stroke-linecap="round" stroke-linejoin="round" stroke-width="4"/>
    </g>
  </g>
</svg>
