<?xml version="1.0" encoding="UTF-8"?>
<svg id="Ebene_1" xmlns="http://www.w3.org/2000/svg" version="1.1" viewBox="0 0 800 800">
  <!-- Generator: Adobe Illustrator 29.6.1, SVG Export Plug-In . SVG Version: 2.1.1 Build 9)  -->
  <defs>
    <style>
      .st0 {
        fill: #df8430;
      }

      .st1 {
        fill: none;
        stroke: #192430;
        stroke-linecap: round;
        stroke-linejoin: round;
        stroke-width: 12px;
      }
    </style>
  </defs>
  <rect class="st1" x="59.5" y="120.6" width="687.9" height="491.9"/>
  <polygon class="st1" points="173.1 682.5 112.7 682.5 112.7 612.5 208.1 612.5 173.1 682.5"/>
  <polygon class="st1" points="626.5 682.5 686.9 682.5 686.9 612.5 591.5 612.5 626.5 682.5"/>
  <line class="st1" x1="688.9" y1="222" x2="688.9" y2="553.5"/>
  <line class="st1" x1="639.2" y1="222" x2="639.2" y2="553.5"/>
  <line class="st1" x1="59.5" y1="164.3" x2="744.6" y2="164.3"/>
  <line class="st1" x1="295.1" y1="217.6" x2="295.1" y2="328.3"/>
  <line class="st1" x1="295.1" y1="404.7" x2="295.1" y2="515.5"/>
  <circle class="st1" cx="295.1" cy="366.5" r="149"/>
  <line class="st1" x1="424.1" y1="291.9" x2="328.2" y2="347.4"/>
  <line class="st1" x1="262.1" y1="385.7" x2="166.2" y2="441.1"/>
  <line class="st1" x1="427.5" y1="434.8" x2="329.1" y2="384"/>
  <line class="st1" x1="261.2" y1="349" x2="162.8" y2="298.2"/>
  <line class="st1" x1="245.9" y1="225.9" x2="282.5" y2="330.5"/>
  <line class="st1" x1="307.8" y1="402.6" x2="344.4" y2="507.1"/>
  <line class="st1" x1="199.2" y1="480.5" x2="270.5" y2="395.8"/>
  <line class="st1" x1="319.7" y1="337.3" x2="391" y2="252.5"/>
  <line class="st1" x1="442.6" y1="387.7" x2="333" y2="372"/>
  <line class="st1" x1="257.3" y1="361.1" x2="147.7" y2="345.4"/>
  <circle class="st0" cx="295.1" cy="366.5" r="38.2"/>
</svg>