<svg xmlns="http://www.w3.org/2000/svg" width="108" height="93" viewBox="0 0 108 93">
  <g id="bbs-lueftung-klimatechnik-sanitaer-navbar-icon" transform="translate(15279.133 14725)">
    <circle id="Ellipse_27" data-name="Ellipse 27" cx="46.5" cy="46.5" r="46.5" transform="translate(-15264.133 -14725)" fill="#00429a"/>
    <g id="Gruppe_6448" data-name="Gruppe 6448" transform="translate(72.676 -107.312)">
      <path id="Pfad_104065" data-name="Pfad 104065" d="M91.878,18.078c5.027,18.818,18.615,25.7,18.615,25.7,0-6.88,5.06-8.3,5.06-8.3,1.1,6.475,4.641,9.587,11.128,19.63,12.03,18.616-8.591,32.509-12.7,32.509-.544,0-.8-.243-.652-.749,6.232-21.544-8.5-26.5-8.5-26.5.809,5.462.128,11.32-10.816,14.733-6.748,2.107-5.5,11.1-4.127,14.716-25.891-4.466-14.4-39.365-14.4-39.365a15.016,15.016,0,0,0,11.941,7.487c-14.569-22.664,4.451-39.862,4.451-39.862m0-6.289a6.289,6.289,0,0,0-4.218,1.624,40.251,40.251,0,0,0-9.287,13.7,35.11,35.11,0,0,0-2.549,17.056c-.111-.006-.224-.009-.337-.009a6.442,6.442,0,0,0-.729.042,6.288,6.288,0,0,0-5.245,4.28A65.57,65.57,0,0,0,67,60.71c-1.049,9.631.27,17.6,3.924,23.678,3.744,6.233,9.931,10.254,17.892,11.627a6.289,6.289,0,0,0,6.949-8.428c-.682-1.8-.96-4.8-.313-6.135.093-.192.122-.25.434-.347q8.438-2.633,12.28-7.8c.747,3.189.457,7.192-.879,11.809a6.832,6.832,0,0,0,1.056,6.06,6.952,6.952,0,0,0,5.637,2.726c5.336,0,14.816-6.449,19.514-15.077,4.719-8.668,4.176-18.3-1.53-27.134-1.906-2.95-3.528-5.267-4.958-7.311-3.493-4.992-4.728-6.875-5.253-9.96a6.289,6.289,0,0,0-7.9-5,12.873,12.873,0,0,0-5.188,3.088,13.969,13.969,0,0,0-1.063,1.145,37.983,37.983,0,0,1-9.651-17.2,6.289,6.289,0,0,0-6.075-4.665" transform="translate(-15418.459 -14620.794)" fill="#fff"/>
      <path id="Pfad_104067" data-name="Pfad 104067" d="M90.6,90.529c-1.372-3.618-2.621-12.61,4.128-14.715C105.668,72.4,106.35,66.542,105.54,61.08c0,0,14.732,4.955,8.5,26.5-1.258,4.339,26.973-10.683,13.353-31.759-6.487-10.043-10.026-13.155-11.128-19.63,0,0-5.06,1.419-5.06,8.3,0,0-13.588-6.88-18.615-25.7,0,0-19.02,17.2-4.451,39.863A15.014,15.014,0,0,1,76.2,51.165s-11.493,34.9,14.4,39.364" transform="translate(-15419.171 -14621.505)" fill="#fff"/>
      <path id="Pfad_104068" data-name="Pfad 104068" d="M90.6,90.529c-1.372-3.618-2.621-12.61,4.128-14.715C105.668,72.4,106.35,66.542,105.54,61.08c0,0,14.732,4.955,8.5,26.5-1.258,4.339,26.973-10.683,13.353-31.759-6.487-10.043-10.026-13.155-11.128-19.63,0,0-5.06,1.419-5.06,8.3,0,0-13.588-6.88-18.615-25.7,0,0-19.02,17.2-4.451,39.863A15.014,15.014,0,0,1,76.2,51.165S64.706,86.064,90.6,90.529Z" transform="translate(-15419.171 -14621.505)" fill="none" stroke="#161948" stroke-linecap="round" stroke-linejoin="round" stroke-width="3.5"/>
    </g>
  </g>
</svg>
