<?xml version="1.0" encoding="UTF-8"?>
<svg id="Ebene_1" xmlns="http://www.w3.org/2000/svg" version="1.1" viewBox="0 0 800 800">
  <!-- Generator: Adobe Illustrator 29.6.1, SVG Export Plug-In . SVG Version: 2.1.1 Build 9)  -->
  <defs>
    <style>
      .st0 {
        fill: #df8430;
      }

      .st1 {
        stroke: #192430;
        stroke-linejoin: round;
      }

      .st1, .st2 {
        fill: none;
        stroke-linecap: round;
        stroke-width: 12px;
      }

      .st2 {
        stroke: #df8430;
        stroke-miterlimit: 10;
      }
    </style>
  </defs>
  <path class="st1" d="M739,195.2c-5.6-2.9-15.9-3.5-36.5-4.7-15-.8-27.6-.5-36.5,0-8,27.8-15.8,64.7-17.6,108.5-2,48.3,4,89.2,10.8,119.2-.9,4.2-1.6,10.2,0,16.8,4.8,20.3,25.8,28.7,28.3,29.6,15.4-8.4,40.1-25,55.9-54.5,5.8-10.9,11.4-25.3,12.8-102,1.6-90.5-5.4-106.7-17.1-112.9Z"/>
  <path class="st1" d="M666,190.6H77.5c-7.7,9.5-13.6,19-18,28-39.5,79.8,6.1,171.5,18,193.9h580.3"/>
  <path class="st1" d="M687.4,464.7l-539.5-5.4c-7.4-1.7-22.9-6.4-37-19.8-10-9.5-15.3-19.7-18-26.2"/>
  <line class="st1" x1="92.8" y1="257.1" x2="596.2" y2="257.5"/>
  <line class="st1" x1="92.8" y1="301.3" x2="596.2" y2="301.7"/>
  <circle class="st0" cx="578" cy="365.1" r="25.7"/>
  <path class="st2" d="M560.9,503.5c-1.2,25.8-6.4,69.9-29.9,118.6-23.1,48-53.8,79.3-73.1,96.3"/>
  <path class="st2" d="M404.7,503.5c-6,25.1-19.4,67.4-51.6,110.8-31.8,42.8-67.7,67.8-89.9,80.9"/>
  <path class="st2" d="M250.5,503.5c-12.1,22.8-35.7,60.4-77.8,94.3-41.5,33.5-82.6,48.6-107.3,55.7"/>
</svg>